<svg width="23" height="23" viewBox="0 0 23 23" fill="none" xmlns="http://www.w3.org/2000/svg">
<g clip-path="url(#clip0_2_63)">
<path d="M20.877 3.542H18.644C18.5985 3.53951 18.553 3.54632 18.5103 3.56201C18.4675 3.57769 18.4284 3.60193 18.3954 3.63324C18.3623 3.66454 18.336 3.70226 18.318 3.74408C18.3 3.78591 18.2907 3.83097 18.2907 3.8765C18.2907 3.92203 18.3 3.96709 18.318 4.00891C18.336 4.05074 18.3623 4.08846 18.3954 4.11976C18.4284 4.15107 18.4675 4.1753 18.5103 4.19099C18.553 4.20668 18.5985 4.21349 18.644 4.211H20.877C21.0249 4.21126 21.1667 4.27014 21.2713 4.37473C21.3759 4.47931 21.4347 4.62109 21.435 4.769V16.045H0.67V4.769C0.670265 4.62109 0.729139 4.47931 0.833727 4.37473C0.938315 4.27014 1.08009 4.21126 1.228 4.211H3.459C3.54455 4.20632 3.62506 4.16904 3.68397 4.10682C3.74288 4.0446 3.7757 3.96218 3.7757 3.8765C3.7757 3.79082 3.74288 3.7084 3.68397 3.64618C3.62506 3.58396 3.54455 3.54668 3.459 3.542H1.228C0.902569 3.54226 0.590527 3.67159 0.360319 3.90161C0.13011 4.13163 0.000529889 4.44357 4.08414e-07 4.769V18.169C-0.000265098 18.495 0.128932 18.8079 0.359198 19.0387C0.589464 19.2695 0.901957 19.3995 1.228 19.4H6.7V21.4H4.354C4.26515 21.4 4.17994 21.4353 4.11712 21.4981C4.0543 21.5609 4.019 21.6462 4.019 21.735C4.019 21.8238 4.0543 21.9091 4.11712 21.9719C4.17994 22.0347 4.26515 22.07 4.354 22.07H17.754C17.8428 22.07 17.9281 22.0347 17.9909 21.9719C18.0537 21.9091 18.089 21.8238 18.089 21.735C18.089 21.6462 18.0537 21.5609 17.9909 21.4981C17.9281 21.4353 17.8428 21.4 17.754 21.4H15.407V19.4H20.877C21.2025 19.3995 21.5146 19.2699 21.7447 19.0397C21.9749 18.8096 22.1045 18.4975 22.105 18.172V4.769C22.1045 4.44357 21.9749 4.13163 21.7447 3.90161C21.5145 3.67159 21.2024 3.54226 20.877 3.542ZM14.737 21.4H7.368V19.4H14.737V21.4ZM21.437 18.163C21.4367 18.3109 21.3779 18.4527 21.2733 18.5573C21.1687 18.6619 21.0269 18.7207 20.879 18.721H1.228C1.08009 18.7207 0.938315 18.6619 0.833727 18.5573C0.729139 18.4527 0.670265 18.3109 0.67 18.163V16.715H21.435L21.437 18.163ZM6.627 3.992C6.57792 3.06444 6.87162 2.15122 7.45221 1.42617C8.03279 0.70112 8.85972 0.214873 9.77557 0.0599871C10.6914 -0.0948987 11.6322 0.0923924 12.419 0.586208C13.2057 1.08002 13.7833 1.84588 14.042 2.738C14.4394 2.53304 14.8887 2.45068 15.3329 2.50135C15.7772 2.55202 16.1964 2.73345 16.5374 3.02264C16.8784 3.31182 17.1259 3.69575 17.2485 4.12575C17.3711 4.55575 17.3633 5.01246 17.226 5.438C17.7866 5.65647 18.2541 6.06262 18.5488 6.58719C18.8434 7.11177 18.947 7.72231 18.8419 8.31474C18.7368 8.90716 18.4295 9.44479 17.9724 9.83599C17.5152 10.2272 16.9365 10.4477 16.335 10.46H14.625C14.5362 10.46 14.4509 10.4247 14.3881 10.3619C14.3253 10.2991 14.29 10.2138 14.29 10.125C14.29 10.0362 14.3253 9.95094 14.3881 9.88812C14.4509 9.82529 14.5362 9.79 14.625 9.79H16.335C16.8056 9.77976 17.2561 9.59717 17.601 9.27686C17.946 8.95655 18.1614 8.52079 18.2064 8.05222C18.2514 7.58365 18.1229 7.11486 17.8452 6.73475C17.5676 6.35463 17.1601 6.08963 16.7 5.99C16.6478 5.98003 16.5987 5.95778 16.5568 5.92509C16.5149 5.8924 16.4814 5.85021 16.459 5.802C16.359 5.451 16.742 5.116 16.676 4.721C16.6768 4.41544 16.5887 4.11625 16.4224 3.85992C16.2561 3.60359 16.0188 3.40121 15.7394 3.27747C15.46 3.15374 15.1506 3.114 14.8491 3.1631C14.5475 3.2122 14.2667 3.34803 14.041 3.554C13.9953 3.59427 13.9396 3.62145 13.8797 3.63267C13.8199 3.64388 13.7581 3.63871 13.7009 3.61771C13.6438 3.59671 13.5933 3.56065 13.555 3.51335C13.5166 3.46605 13.4917 3.40927 13.483 3.349C13.3729 2.5722 12.9736 1.8656 12.3649 1.37058C11.7563 0.875558 10.9831 0.628621 10.2002 0.679173C9.41727 0.729725 8.6823 1.07404 8.14234 1.64323C7.60238 2.21241 7.29725 2.9645 7.288 3.749C7.275 4.082 7.534 4.776 6.945 4.711C6.59438 4.64008 6.23281 4.64326 5.8835 4.72033C5.53418 4.79739 5.20484 4.94664 4.91661 5.1585C4.62837 5.37035 4.38762 5.64014 4.2098 5.95052C4.03198 6.26091 3.92103 6.60505 3.88405 6.96085C3.84708 7.31665 3.88491 7.67625 3.99511 8.01657C4.10531 8.35689 4.28545 8.6704 4.52396 8.937C4.76247 9.20359 5.05409 9.41737 5.3801 9.56461C5.7061 9.71185 6.05929 9.78931 6.417 9.792H7.48C7.56885 9.792 7.65406 9.82729 7.71688 9.89012C7.77971 9.95294 7.815 10.0382 7.815 10.127C7.815 10.2158 7.77971 10.3011 7.71688 10.3639C7.65406 10.4267 7.56885 10.462 7.48 10.462H6.322C5.89253 10.4486 5.47003 10.3498 5.0791 10.1715C4.68816 9.99324 4.33661 9.73894 4.04492 9.42344C3.75322 9.10795 3.52722 8.73757 3.38006 8.33388C3.2329 7.93019 3.16754 7.50126 3.18777 7.07206C3.208 6.64286 3.31343 6.22198 3.49791 5.83392C3.68239 5.44587 3.94224 5.09839 4.26232 4.81174C4.5824 4.52509 4.95631 4.30498 5.36229 4.16425C5.76826 4.02351 6.19818 3.96496 6.627 3.992ZM12.95 6.913V12.139H13.517L12.617 13.701L11.717 12.139H12.284V6.913C12.2815 6.86753 12.2883 6.82204 12.304 6.77929C12.3197 6.73655 12.3439 6.69745 12.3752 6.66438C12.4065 6.63132 12.4443 6.60498 12.4861 6.58698C12.5279 6.56899 12.573 6.5597 12.6185 6.5597C12.664 6.5597 12.7091 6.56899 12.7509 6.58698C12.7927 6.60498 12.8305 6.63132 12.8618 6.66438C12.8931 6.69745 12.9173 6.73655 12.933 6.77929C12.9487 6.82204 12.9555 6.86753 12.953 6.913H12.95ZM9.155 13.344V8.117H8.588L9.488 6.556L10.388 8.117H9.824V13.344C9.81932 13.4296 9.78204 13.5101 9.71982 13.569C9.6576 13.6279 9.57518 13.6607 9.4895 13.6607C9.40382 13.6607 9.3214 13.6279 9.25918 13.569C9.19696 13.5101 9.15968 13.4296 9.155 13.344Z" fill="white"/>
</g>
<defs>
<clipPath id="clip0_2_63">
<rect width="22.105" height="22.074" fill="white"/>
</clipPath>
</defs>
</svg>
